<svg width="658" height="125" viewBox="0 0 658 125" fill="none" xmlns="http://www.w3.org/2000/svg">
    <path fill-rule="evenodd" clip-rule="evenodd"
        d="M132.597 90.6451C131.753 90.4513 127.319 89.4612 127.319 92.2905V117.359C127.319 121.327 130.907 124.618 135.236 124.618C139.565 124.618 143.154 121.327 143.154 117.359V102.55C143.154 96.8395 138.825 91.8066 132.597 90.6451ZM36.3139 93.3197C35.7862 93.223 32.3023 93.1339 32.3023 95.2556V117.359C32.3023 121.328 35.8916 124.618 40.2201 124.618C44.5485 124.618 48.1378 121.328 48.1378 117.359V105.418C48.1378 99.225 43.0703 93.9974 36.3139 93.3197Z"
        fill="#1FD1C2" />
    <path fill-rule="evenodd" clip-rule="evenodd"
        d="M174.823 73.5806V32.6664C174.823 32.2822 174.811 31.9 174.789 31.5197V24.6997C174.789 17.0717 168.046 10.8888 159.727 10.8888H142.346C134.027 10.8888 127.282 17.0717 127.282 24.6997V32.6668L127.317 38.5747C114.395 42.1849 97.3268 43.3395 79.8104 34.2441V21.7776C79.8104 21.3934 79.7979 21.0112 79.7756 20.6316V13.8109C79.7756 6.1829 73.0329 0 64.7141 0H47.333C39.0142 0 32.2693 6.1829 32.2693 13.8109V21.778L32.3041 74.4905C23.075 75.7536 13.9192 77.2296 4.85583 78.9332C2.42756 79.4171 0.737671 81.353 0.737671 83.579C0.737671 89.1918 6.43952 93.4516 12.4567 92.2901C24.8076 90.0638 37.3702 88.224 49.9342 86.8688C55.6339 86.2882 59.8568 81.9326 59.8568 76.7059V74.2862C59.7521 72.7375 58.3797 71.4803 56.6895 71.6737C53.8328 71.9411 50.9847 72.2382 48.1396 72.547V21.7776C48.1396 17.8092 51.7278 14.5184 56.0573 14.5184C60.3846 14.5184 63.975 17.8092 63.975 21.7776V117.358C63.975 121.327 67.5632 124.617 71.8927 124.617C76.3266 124.617 79.8104 121.327 79.8104 117.358V84.5382C88.8092 84.1016 97.8736 83.8684 106.942 83.8684C118.976 83.8684 131.012 84.2566 142.836 85.0309C149.275 85.5148 154.765 80.7711 154.765 74.7701V73.7056C154.765 72.3503 153.603 71.1888 152.231 71.0921C149.206 70.8788 146.18 70.6827 143.153 70.5036V52.2964C143.153 50.7964 141.524 49.7704 139.986 50.2822C138.223 50.8697 136.44 51.4043 134.639 51.8852C130.32 53.0378 127.317 56.622 127.317 60.7454V69.7391C120.546 69.4931 113.755 69.35 106.942 69.35C97.8736 69.35 88.8092 69.5832 79.8104 70.0197V45.1388C89.8016 49.3783 99.4949 50.8806 108.198 50.8806C113.028 50.8806 117.557 50.4188 121.659 49.7112C135.078 47.3951 145.795 42.2138 151.625 38.8921C154.275 37.3813 154.9 34.0961 152.983 31.8382C151.319 29.878 148.314 29.399 146.022 30.722C145.193 31.2003 144.231 31.7296 143.174 32.2822C143.397 28.4891 146.883 25.4072 151.07 25.4072C155.398 25.4072 158.988 28.698 158.988 32.6664V117.358C158.988 121.327 162.576 124.617 166.906 124.617C171.34 124.617 174.823 121.327 174.823 117.358V88.1987C184.261 89.4434 193.625 90.8954 202.904 92.5796C204.699 92.8697 206.388 91.6115 206.388 89.9661C206.388 83.1908 201.004 77.3836 193.719 76.222C187.497 75.2714 181.186 74.4023 174.823 73.5806Z"
        fill="#1FD1C2" />
    <path fill-rule="evenodd" clip-rule="evenodd"
        d="M54.1051 20.0197L54.0567 20.0572L54.0334 20.0747C51.7034 21.8566 51.4702 25.0033 53.5246 27.0503C54.4165 27.9388 55.311 28.7954 56.2072 29.622C57.5118 30.8253 59.751 29.9714 59.751 28.2757V22.4638C59.751 19.7895 56.3579 18.3214 54.1051 20.0197Z"
        fill="#1FD1C2" />
    <path
        d="M326.273 24.875V59H319.266V24.875H326.273ZM336.773 24.875V30.3828H308.93V24.875H336.773ZM345.469 39.1719V59H338.719V33.6406H345.07L345.469 39.1719ZM353.109 33.4766L352.992 39.7344C352.664 39.6875 352.266 39.6484 351.797 39.6172C351.344 39.5703 350.93 39.5469 350.555 39.5469C349.602 39.5469 348.773 39.6719 348.07 39.9219C347.383 40.1562 346.805 40.5078 346.336 40.9766C345.883 41.4453 345.539 42.0156 345.305 42.6875C345.086 43.3594 344.961 44.125 344.93 44.9844L343.57 44.5625C343.57 42.9219 343.734 41.4141 344.062 40.0391C344.391 38.6484 344.867 37.4375 345.492 36.4062C346.133 35.375 346.914 34.5781 347.836 34.0156C348.758 33.4531 349.812 33.1719 351 33.1719C351.375 33.1719 351.758 33.2031 352.148 33.2656C352.539 33.3125 352.859 33.3828 353.109 33.4766ZM369.188 53.2812V41.9844C369.188 41.1719 369.055 40.4766 368.789 39.8984C368.523 39.3047 368.109 38.8438 367.547 38.5156C367 38.1875 366.289 38.0234 365.414 38.0234C364.664 38.0234 364.016 38.1562 363.469 38.4219C362.922 38.6719 362.5 39.0391 362.203 39.5234C361.906 39.9922 361.758 40.5469 361.758 41.1875H355.008C355.008 40.1094 355.258 39.0859 355.758 38.1172C356.258 37.1484 356.984 36.2969 357.938 35.5625C358.891 34.8125 360.023 34.2266 361.336 33.8047C362.664 33.3828 364.148 33.1719 365.789 33.1719C367.758 33.1719 369.508 33.5 371.039 34.1562C372.57 34.8125 373.773 35.7969 374.648 37.1094C375.539 38.4219 375.984 40.0625 375.984 42.0312V52.8828C375.984 54.2734 376.07 55.4141 376.242 56.3047C376.414 57.1797 376.664 57.9453 376.992 58.6016V59H370.172C369.844 58.3125 369.594 57.4531 369.422 56.4219C369.266 55.375 369.188 54.3281 369.188 53.2812ZM370.078 43.5547L370.125 47.375H366.352C365.461 47.375 364.688 47.4766 364.031 47.6797C363.375 47.8828 362.836 48.1719 362.414 48.5469C361.992 48.9062 361.68 49.3281 361.477 49.8125C361.289 50.2969 361.195 50.8281 361.195 51.4062C361.195 51.9844 361.328 52.5078 361.594 52.9766C361.859 53.4297 362.242 53.7891 362.742 54.0547C363.242 54.3047 363.828 54.4297 364.5 54.4297C365.516 54.4297 366.398 54.2266 367.148 53.8203C367.898 53.4141 368.477 52.9141 368.883 52.3203C369.305 51.7266 369.523 51.1641 369.539 50.6328L371.32 53.4922C371.07 54.1328 370.727 54.7969 370.289 55.4844C369.867 56.1719 369.328 56.8203 368.672 57.4297C368.016 58.0234 367.227 58.5156 366.305 58.9062C365.383 59.2812 364.289 59.4688 363.023 59.4688C361.414 59.4688 359.953 59.1484 358.641 58.5078C357.344 57.8516 356.312 56.9531 355.547 55.8125C354.797 54.6562 354.422 53.3438 354.422 51.875C354.422 50.5469 354.672 49.3672 355.172 48.3359C355.672 47.3047 356.406 46.4375 357.375 45.7344C358.359 45.0156 359.586 44.4766 361.055 44.1172C362.523 43.7422 364.227 43.5547 366.164 43.5547H370.078ZM387.797 39.0547V59H381.047V33.6406H387.375L387.797 39.0547ZM386.812 45.4297H384.984C384.984 43.5547 385.227 41.8672 385.711 40.3672C386.195 38.8516 386.875 37.5625 387.75 36.5C388.625 35.4219 389.664 34.6016 390.867 34.0391C392.086 33.4609 393.445 33.1719 394.945 33.1719C396.133 33.1719 397.219 33.3438 398.203 33.6875C399.188 34.0312 400.031 34.5781 400.734 35.3281C401.453 36.0781 402 37.0703 402.375 38.3047C402.766 39.5391 402.961 41.0469 402.961 42.8281V59H396.164V42.8047C396.164 41.6797 396.008 40.8047 395.695 40.1797C395.383 39.5547 394.922 39.1172 394.312 38.8672C393.719 38.6016 392.984 38.4688 392.109 38.4688C391.203 38.4688 390.414 38.6484 389.742 39.0078C389.086 39.3672 388.539 39.8672 388.102 40.5078C387.68 41.1328 387.359 41.8672 387.141 42.7109C386.922 43.5547 386.812 44.4609 386.812 45.4297ZM421.805 51.9922C421.805 51.5078 421.664 51.0703 421.383 50.6797C421.102 50.2891 420.578 49.9297 419.812 49.6016C419.062 49.2578 417.977 48.9453 416.555 48.6641C415.273 48.3828 414.078 48.0312 412.969 47.6094C411.875 47.1719 410.922 46.6484 410.109 46.0391C409.312 45.4297 408.688 44.7109 408.234 43.8828C407.781 43.0391 407.555 42.0781 407.555 41C407.555 39.9375 407.781 38.9375 408.234 38C408.703 37.0625 409.367 36.2344 410.227 35.5156C411.102 34.7812 412.164 34.2109 413.414 33.8047C414.68 33.3828 416.102 33.1719 417.68 33.1719C419.883 33.1719 421.773 33.5234 423.352 34.2266C424.945 34.9297 426.164 35.8984 427.008 37.1328C427.867 38.3516 428.297 39.7422 428.297 41.3047H421.547C421.547 40.6484 421.406 40.0625 421.125 39.5469C420.859 39.0156 420.438 38.6016 419.859 38.3047C419.297 37.9922 418.562 37.8359 417.656 37.8359C416.906 37.8359 416.258 37.9688 415.711 38.2344C415.164 38.4844 414.742 38.8281 414.445 39.2656C414.164 39.6875 414.023 40.1562 414.023 40.6719C414.023 41.0625 414.102 41.4141 414.258 41.7266C414.43 42.0234 414.703 42.2969 415.078 42.5469C415.453 42.7969 415.938 43.0312 416.531 43.25C417.141 43.4531 417.891 43.6406 418.781 43.8125C420.609 44.1875 422.242 44.6797 423.68 45.2891C425.117 45.8828 426.258 46.6953 427.102 47.7266C427.945 48.7422 428.367 50.0781 428.367 51.7344C428.367 52.8594 428.117 53.8906 427.617 54.8281C427.117 55.7656 426.398 56.5859 425.461 57.2891C424.523 57.9766 423.398 58.5156 422.086 58.9062C420.789 59.2812 419.328 59.4688 417.703 59.4688C415.344 59.4688 413.344 59.0469 411.703 58.2031C410.078 57.3594 408.844 56.2891 408 54.9922C407.172 53.6797 406.758 52.3359 406.758 50.9609H413.156C413.188 51.8828 413.422 52.625 413.859 53.1875C414.312 53.75 414.883 54.1562 415.57 54.4062C416.273 54.6562 417.031 54.7812 417.844 54.7812C418.719 54.7812 419.445 54.6641 420.023 54.4297C420.602 54.1797 421.039 53.8516 421.336 53.4453C421.648 53.0234 421.805 52.5391 421.805 51.9922ZM441.352 59H434.555V31.3906C434.555 29.4688 434.93 27.8516 435.68 26.5391C436.445 25.2109 437.516 24.2109 438.891 23.5391C440.281 22.8516 441.93 22.5078 443.836 22.5078C444.461 22.5078 445.062 22.5547 445.641 22.6484C446.219 22.7266 446.781 22.8281 447.328 22.9531L447.258 28.0391C446.961 27.9609 446.648 27.9062 446.32 27.875C445.992 27.8438 445.609 27.8281 445.172 27.8281C444.359 27.8281 443.664 27.9688 443.086 28.25C442.523 28.5156 442.094 28.9141 441.797 29.4453C441.5 29.9766 441.352 30.625 441.352 31.3906V59ZM446.414 33.6406V38.4219H430.781V33.6406H446.414ZM461.062 59.4688C459.094 59.4688 457.328 59.1562 455.766 58.5312C454.203 57.8906 452.875 57.0078 451.781 55.8828C450.703 54.7578 449.875 53.4531 449.297 51.9688C448.719 50.4688 448.43 48.875 448.43 47.1875V46.25C448.43 44.3281 448.703 42.5703 449.25 40.9766C449.797 39.3828 450.578 38 451.594 36.8281C452.625 35.6562 453.875 34.7578 455.344 34.1328C456.812 33.4922 458.469 33.1719 460.312 33.1719C462.109 33.1719 463.703 33.4688 465.094 34.0625C466.484 34.6562 467.648 35.5 468.586 36.5938C469.539 37.6875 470.258 39 470.742 40.5312C471.227 42.0469 471.469 43.7344 471.469 45.5938V48.4062H451.312V43.9062H464.836V43.3906C464.836 42.4531 464.664 41.6172 464.32 40.8828C463.992 40.1328 463.492 39.5391 462.82 39.1016C462.148 38.6641 461.289 38.4453 460.242 38.4453C459.352 38.4453 458.586 38.6406 457.945 39.0312C457.305 39.4219 456.781 39.9688 456.375 40.6719C455.984 41.375 455.688 42.2031 455.484 43.1562C455.297 44.0938 455.203 45.125 455.203 46.25V47.1875C455.203 48.2031 455.344 49.1406 455.625 50C455.922 50.8594 456.336 51.6016 456.867 52.2266C457.414 52.8516 458.07 53.3359 458.836 53.6797C459.617 54.0234 460.5 54.1953 461.484 54.1953C462.703 54.1953 463.836 53.9609 464.883 53.4922C465.945 53.0078 466.859 52.2812 467.625 51.3125L470.906 54.875C470.375 55.6406 469.648 56.375 468.727 57.0781C467.82 57.7812 466.727 58.3594 465.445 58.8125C464.164 59.25 462.703 59.4688 461.062 59.4688ZM486.984 59.4688C485.016 59.4688 483.25 59.1562 481.688 58.5312C480.125 57.8906 478.797 57.0078 477.703 55.8828C476.625 54.7578 475.797 53.4531 475.219 51.9688C474.641 50.4688 474.352 48.875 474.352 47.1875V46.25C474.352 44.3281 474.625 42.5703 475.172 40.9766C475.719 39.3828 476.5 38 477.516 36.8281C478.547 35.6562 479.797 34.7578 481.266 34.1328C482.734 33.4922 484.391 33.1719 486.234 33.1719C488.031 33.1719 489.625 33.4688 491.016 34.0625C492.406 34.6562 493.57 35.5 494.508 36.5938C495.461 37.6875 496.18 39 496.664 40.5312C497.148 42.0469 497.391 43.7344 497.391 45.5938V48.4062H477.234V43.9062H490.758V43.3906C490.758 42.4531 490.586 41.6172 490.242 40.8828C489.914 40.1328 489.414 39.5391 488.742 39.1016C488.07 38.6641 487.211 38.4453 486.164 38.4453C485.273 38.4453 484.508 38.6406 483.867 39.0312C483.227 39.4219 482.703 39.9688 482.297 40.6719C481.906 41.375 481.609 42.2031 481.406 43.1562C481.219 44.0938 481.125 45.125 481.125 46.25V47.1875C481.125 48.2031 481.266 49.1406 481.547 50C481.844 50.8594 482.258 51.6016 482.789 52.2266C483.336 52.8516 483.992 53.3359 484.758 53.6797C485.539 54.0234 486.422 54.1953 487.406 54.1953C488.625 54.1953 489.758 53.9609 490.805 53.4922C491.867 53.0078 492.781 52.2812 493.547 51.3125L496.828 54.875C496.297 55.6406 495.57 56.375 494.648 57.0781C493.742 57.7812 492.648 58.3594 491.367 58.8125C490.086 59.25 488.625 59.4688 486.984 59.4688ZM507.984 39.1719V59H501.234V33.6406H507.586L507.984 39.1719ZM515.625 33.4766L515.508 39.7344C515.18 39.6875 514.781 39.6484 514.312 39.6172C513.859 39.5703 513.445 39.5469 513.07 39.5469C512.117 39.5469 511.289 39.6719 510.586 39.9219C509.898 40.1562 509.32 40.5078 508.852 40.9766C508.398 41.4453 508.055 42.0156 507.82 42.6875C507.602 43.3594 507.477 44.125 507.445 44.9844L506.086 44.5625C506.086 42.9219 506.25 41.4141 506.578 40.0391C506.906 38.6484 507.383 37.4375 508.008 36.4062C508.648 35.375 509.43 34.5781 510.352 34.0156C511.273 33.4531 512.328 33.1719 513.516 33.1719C513.891 33.1719 514.273 33.2031 514.664 33.2656C515.055 33.3125 515.375 33.3828 515.625 33.4766ZM531.703 53.2812V41.9844C531.703 41.1719 531.57 40.4766 531.305 39.8984C531.039 39.3047 530.625 38.8438 530.062 38.5156C529.516 38.1875 528.805 38.0234 527.93 38.0234C527.18 38.0234 526.531 38.1562 525.984 38.4219C525.438 38.6719 525.016 39.0391 524.719 39.5234C524.422 39.9922 524.273 40.5469 524.273 41.1875H517.523C517.523 40.1094 517.773 39.0859 518.273 38.1172C518.773 37.1484 519.5 36.2969 520.453 35.5625C521.406 34.8125 522.539 34.2266 523.852 33.8047C525.18 33.3828 526.664 33.1719 528.305 33.1719C530.273 33.1719 532.023 33.5 533.555 34.1562C535.086 34.8125 536.289 35.7969 537.164 37.1094C538.055 38.4219 538.5 40.0625 538.5 42.0312V52.8828C538.5 54.2734 538.586 55.4141 538.758 56.3047C538.93 57.1797 539.18 57.9453 539.508 58.6016V59H532.688C532.359 58.3125 532.109 57.4531 531.938 56.4219C531.781 55.375 531.703 54.3281 531.703 53.2812ZM532.594 43.5547L532.641 47.375H528.867C527.977 47.375 527.203 47.4766 526.547 47.6797C525.891 47.8828 525.352 48.1719 524.93 48.5469C524.508 48.9062 524.195 49.3281 523.992 49.8125C523.805 50.2969 523.711 50.8281 523.711 51.4062C523.711 51.9844 523.844 52.5078 524.109 52.9766C524.375 53.4297 524.758 53.7891 525.258 54.0547C525.758 54.3047 526.344 54.4297 527.016 54.4297C528.031 54.4297 528.914 54.2266 529.664 53.8203C530.414 53.4141 530.992 52.9141 531.398 52.3203C531.82 51.7266 532.039 51.1641 532.055 50.6328L533.836 53.4922C533.586 54.1328 533.242 54.7969 532.805 55.4844C532.383 56.1719 531.844 56.8203 531.188 57.4297C530.531 58.0234 529.742 58.5156 528.82 58.9062C527.898 59.2812 526.805 59.4688 525.539 59.4688C523.93 59.4688 522.469 59.1484 521.156 58.5078C519.859 57.8516 518.828 56.9531 518.062 55.8125C517.312 54.6562 516.938 53.3438 516.938 51.875C516.938 50.5469 517.188 49.3672 517.688 48.3359C518.188 47.3047 518.922 46.4375 519.891 45.7344C520.875 45.0156 522.102 44.4766 523.57 44.1172C525.039 43.7422 526.742 43.5547 528.68 43.5547H532.594Z"
        fill="#005F56" />
    <path
        d="M239.93 100.023H231.164L231.117 95.1953H238.477C239.773 95.1953 240.836 95.0312 241.664 94.7031C242.492 94.3594 243.109 93.8672 243.516 93.2266C243.938 92.5703 244.148 91.7734 244.148 90.8359C244.148 89.7734 243.945 88.9141 243.539 88.2578C243.148 87.6016 242.531 87.125 241.688 86.8281C240.859 86.5312 239.789 86.3828 238.477 86.3828H233.602V115H226.57V80.875H238.477C240.461 80.875 242.234 81.0625 243.797 81.4375C245.375 81.8125 246.711 82.3828 247.805 83.1484C248.898 83.9141 249.734 84.8828 250.312 86.0547C250.891 87.2109 251.18 88.5859 251.18 90.1797C251.18 91.5859 250.859 92.8828 250.219 94.0703C249.594 95.2578 248.602 96.2266 247.242 96.9766C245.898 97.7266 244.141 98.1406 241.969 98.2188L239.93 100.023ZM239.625 115H229.242L231.984 109.516H239.625C240.859 109.516 241.867 109.32 242.648 108.93C243.43 108.523 244.008 107.977 244.383 107.289C244.758 106.602 244.945 105.812 244.945 104.922C244.945 103.922 244.773 103.055 244.43 102.32C244.102 101.586 243.57 101.023 242.836 100.633C242.102 100.227 241.133 100.023 239.93 100.023H233.156L233.203 95.1953H241.641L243.258 97.0938C245.336 97.0625 247.008 97.4297 248.273 98.1953C249.555 98.9453 250.484 99.9219 251.062 101.125C251.656 102.328 251.953 103.617 251.953 104.992C251.953 107.18 251.477 109.023 250.523 110.523C249.57 112.008 248.172 113.125 246.328 113.875C244.5 114.625 242.266 115 239.625 115ZM270.492 109.281V97.9844C270.492 97.1719 270.359 96.4766 270.094 95.8984C269.828 95.3047 269.414 94.8438 268.852 94.5156C268.305 94.1875 267.594 94.0234 266.719 94.0234C265.969 94.0234 265.32 94.1562 264.773 94.4219C264.227 94.6719 263.805 95.0391 263.508 95.5234C263.211 95.9922 263.062 96.5469 263.062 97.1875H256.312C256.312 96.1094 256.562 95.0859 257.062 94.1172C257.562 93.1484 258.289 92.2969 259.242 91.5625C260.195 90.8125 261.328 90.2266 262.641 89.8047C263.969 89.3828 265.453 89.1719 267.094 89.1719C269.062 89.1719 270.812 89.5 272.344 90.1562C273.875 90.8125 275.078 91.7969 275.953 93.1094C276.844 94.4219 277.289 96.0625 277.289 98.0312V108.883C277.289 110.273 277.375 111.414 277.547 112.305C277.719 113.18 277.969 113.945 278.297 114.602V115H271.477C271.148 114.312 270.898 113.453 270.727 112.422C270.57 111.375 270.492 110.328 270.492 109.281ZM271.383 99.5547L271.43 103.375H267.656C266.766 103.375 265.992 103.477 265.336 103.68C264.68 103.883 264.141 104.172 263.719 104.547C263.297 104.906 262.984 105.328 262.781 105.812C262.594 106.297 262.5 106.828 262.5 107.406C262.5 107.984 262.633 108.508 262.898 108.977C263.164 109.43 263.547 109.789 264.047 110.055C264.547 110.305 265.133 110.43 265.805 110.43C266.82 110.43 267.703 110.227 268.453 109.82C269.203 109.414 269.781 108.914 270.188 108.32C270.609 107.727 270.828 107.164 270.844 106.633L272.625 109.492C272.375 110.133 272.031 110.797 271.594 111.484C271.172 112.172 270.633 112.82 269.977 113.43C269.32 114.023 268.531 114.516 267.609 114.906C266.688 115.281 265.594 115.469 264.328 115.469C262.719 115.469 261.258 115.148 259.945 114.508C258.648 113.852 257.617 112.953 256.852 111.812C256.102 110.656 255.727 109.344 255.727 107.875C255.727 106.547 255.977 105.367 256.477 104.336C256.977 103.305 257.711 102.438 258.68 101.734C259.664 101.016 260.891 100.477 262.359 100.117C263.828 99.7422 265.531 99.5547 267.469 99.5547H271.383ZM292.969 110.195C293.797 110.195 294.531 110.039 295.172 109.727C295.812 109.398 296.312 108.945 296.672 108.367C297.047 107.773 297.242 107.078 297.258 106.281H303.609C303.594 108.062 303.117 109.648 302.18 111.039C301.242 112.414 299.984 113.5 298.406 114.297C296.828 115.078 295.062 115.469 293.109 115.469C291.141 115.469 289.422 115.141 287.953 114.484C286.5 113.828 285.289 112.922 284.32 111.766C283.352 110.594 282.625 109.234 282.141 107.688C281.656 106.125 281.414 104.453 281.414 102.672V101.992C281.414 100.195 281.656 98.5234 282.141 96.9766C282.625 95.4141 283.352 94.0547 284.32 92.8984C285.289 91.7266 286.5 90.8125 287.953 90.1562C289.406 89.5 291.109 89.1719 293.062 89.1719C295.141 89.1719 296.961 89.5703 298.523 90.3672C300.102 91.1641 301.336 92.3047 302.227 93.7891C303.133 95.2578 303.594 97 303.609 99.0156H297.258C297.242 98.1719 297.062 97.4062 296.719 96.7188C296.391 96.0312 295.906 95.4844 295.266 95.0781C294.641 94.6562 293.867 94.4453 292.945 94.4453C291.961 94.4453 291.156 94.6562 290.531 95.0781C289.906 95.4844 289.422 96.0469 289.078 96.7656C288.734 97.4688 288.492 98.2734 288.352 99.1797C288.227 100.07 288.164 101.008 288.164 101.992V102.672C288.164 103.656 288.227 104.602 288.352 105.508C288.477 106.414 288.711 107.219 289.055 107.922C289.414 108.625 289.906 109.18 290.531 109.586C291.156 109.992 291.969 110.195 292.969 110.195ZM314.273 78.9766V115H307.523V78.9766H314.273ZM330.258 89.6406L319.242 102.203L313.336 108.18L310.875 103.305L315.562 97.3516L322.148 89.6406H330.258ZM323.25 115L315.75 103.281L320.414 99.2031L331.031 115H323.25ZM344.367 115.469C342.398 115.469 340.633 115.156 339.07 114.531C337.508 113.891 336.18 113.008 335.086 111.883C334.008 110.758 333.18 109.453 332.602 107.969C332.023 106.469 331.734 104.875 331.734 103.188V102.25C331.734 100.328 332.008 98.5703 332.555 96.9766C333.102 95.3828 333.883 94 334.898 92.8281C335.93 91.6562 337.18 90.7578 338.648 90.1328C340.117 89.4922 341.773 89.1719 343.617 89.1719C345.414 89.1719 347.008 89.4688 348.398 90.0625C349.789 90.6562 350.953 91.5 351.891 92.5938C352.844 93.6875 353.562 95 354.047 96.5312C354.531 98.0469 354.773 99.7344 354.773 101.594V104.406H334.617V99.9062H348.141V99.3906C348.141 98.4531 347.969 97.6172 347.625 96.8828C347.297 96.1328 346.797 95.5391 346.125 95.1016C345.453 94.6641 344.594 94.4453 343.547 94.4453C342.656 94.4453 341.891 94.6406 341.25 95.0312C340.609 95.4219 340.086 95.9688 339.68 96.6719C339.289 97.375 338.992 98.2031 338.789 99.1562C338.602 100.094 338.508 101.125 338.508 102.25V103.188C338.508 104.203 338.648 105.141 338.93 106C339.227 106.859 339.641 107.602 340.172 108.227C340.719 108.852 341.375 109.336 342.141 109.68C342.922 110.023 343.805 110.195 344.789 110.195C346.008 110.195 347.141 109.961 348.188 109.492C349.25 109.008 350.164 108.281 350.93 107.312L354.211 110.875C353.68 111.641 352.953 112.375 352.031 113.078C351.125 113.781 350.031 114.359 348.75 114.812C347.469 115.25 346.008 115.469 344.367 115.469ZM365.227 95.0547V115H358.477V89.6406H364.805L365.227 95.0547ZM364.242 101.43H362.414C362.414 99.5547 362.656 97.8672 363.141 96.3672C363.625 94.8516 364.305 93.5625 365.18 92.5C366.055 91.4219 367.094 90.6016 368.297 90.0391C369.516 89.4609 370.875 89.1719 372.375 89.1719C373.562 89.1719 374.648 89.3438 375.633 89.6875C376.617 90.0312 377.461 90.5781 378.164 91.3281C378.883 92.0781 379.43 93.0703 379.805 94.3047C380.195 95.5391 380.391 97.0469 380.391 98.8281V115H373.594V98.8047C373.594 97.6797 373.438 96.8047 373.125 96.1797C372.812 95.5547 372.352 95.1172 371.742 94.8672C371.148 94.6016 370.414 94.4688 369.539 94.4688C368.633 94.4688 367.844 94.6484 367.172 95.0078C366.516 95.3672 365.969 95.8672 365.531 96.5078C365.109 97.1328 364.789 97.8672 364.57 98.7109C364.352 99.5547 364.242 100.461 364.242 101.43ZM400.5 109.469V79H407.297V115H401.18L400.5 109.469ZM384.469 102.625V102.133C384.469 100.195 384.688 98.4375 385.125 96.8594C385.562 95.2656 386.203 93.8984 387.047 92.7578C387.891 91.6172 388.93 90.7344 390.164 90.1094C391.398 89.4844 392.805 89.1719 394.383 89.1719C395.867 89.1719 397.164 89.4844 398.273 90.1094C399.398 90.7344 400.352 91.625 401.133 92.7812C401.93 93.9219 402.57 95.2734 403.055 96.8359C403.539 98.3828 403.891 100.078 404.109 101.922V103C403.891 104.766 403.539 106.406 403.055 107.922C402.57 109.438 401.93 110.766 401.133 111.906C400.352 113.031 399.398 113.906 398.273 114.531C397.148 115.156 395.836 115.469 394.336 115.469C392.758 115.469 391.352 115.148 390.117 114.508C388.898 113.867 387.867 112.969 387.023 111.812C386.195 110.656 385.562 109.297 385.125 107.734C384.688 106.172 384.469 104.469 384.469 102.625ZM391.219 102.133V102.625C391.219 103.672 391.297 104.648 391.453 105.555C391.625 106.461 391.898 107.266 392.273 107.969C392.664 108.656 393.164 109.195 393.773 109.586C394.398 109.961 395.156 110.148 396.047 110.148C397.203 110.148 398.156 109.891 398.906 109.375C399.656 108.844 400.227 108.117 400.617 107.195C401.023 106.273 401.258 105.211 401.32 104.008V100.938C401.273 99.9531 401.133 99.0703 400.898 98.2891C400.68 97.4922 400.352 96.8125 399.914 96.25C399.492 95.6875 398.961 95.25 398.32 94.9375C397.695 94.625 396.953 94.4688 396.094 94.4688C395.219 94.4688 394.469 94.6719 393.844 95.0781C393.219 95.4688 392.711 96.0078 392.32 96.6953C391.945 97.3828 391.664 98.1953 391.477 99.1328C391.305 100.055 391.219 101.055 391.219 102.133ZM444.727 103.68H451.734C451.594 105.977 450.961 108.016 449.836 109.797C448.727 111.578 447.172 112.969 445.172 113.969C443.188 114.969 440.797 115.469 438 115.469C435.812 115.469 433.852 115.094 432.117 114.344C430.383 113.578 428.898 112.484 427.664 111.062C426.445 109.641 425.516 107.922 424.875 105.906C424.234 103.891 423.914 101.633 423.914 99.1328V96.7656C423.914 94.2656 424.242 92.0078 424.898 89.9922C425.57 87.9609 426.523 86.2344 427.758 84.8125C429.008 83.3906 430.5 82.2969 432.234 81.5312C433.969 80.7656 435.906 80.3828 438.047 80.3828C440.891 80.3828 443.289 80.8984 445.242 81.9297C447.211 82.9609 448.734 84.3828 449.812 86.1953C450.906 88.0078 451.562 90.0703 451.781 92.3828H444.75C444.672 91.0078 444.398 89.8438 443.93 88.8906C443.461 87.9219 442.75 87.1953 441.797 86.7109C440.859 86.2109 439.609 85.9609 438.047 85.9609C436.875 85.9609 435.852 86.1797 434.977 86.6172C434.102 87.0547 433.367 87.7188 432.773 88.6094C432.18 89.5 431.734 90.625 431.438 91.9844C431.156 93.3281 431.016 94.9062 431.016 96.7188V99.1328C431.016 100.898 431.148 102.453 431.414 103.797C431.68 105.125 432.086 106.25 432.633 107.172C433.195 108.078 433.914 108.766 434.789 109.234C435.68 109.688 436.75 109.914 438 109.914C439.469 109.914 440.68 109.68 441.633 109.211C442.586 108.742 443.312 108.047 443.812 107.125C444.328 106.203 444.633 105.055 444.727 103.68ZM462.516 79V115H455.766V79H462.516ZM461.555 101.43H459.703C459.719 99.6641 459.953 98.0391 460.406 96.5547C460.859 95.0547 461.508 93.7578 462.352 92.6641C463.195 91.5547 464.203 90.6953 465.375 90.0859C466.562 89.4766 467.875 89.1719 469.312 89.1719C470.562 89.1719 471.695 89.3516 472.711 89.7109C473.742 90.0547 474.625 90.6172 475.359 91.3984C476.109 92.1641 476.688 93.1719 477.094 94.4219C477.5 95.6719 477.703 97.1875 477.703 98.9688V115H470.906V98.9219C470.906 97.7969 470.742 96.9141 470.414 96.2734C470.102 95.6172 469.641 95.1562 469.031 94.8906C468.438 94.6094 467.703 94.4688 466.828 94.4688C465.859 94.4688 465.031 94.6484 464.344 95.0078C463.672 95.3672 463.133 95.8672 462.727 96.5078C462.32 97.1328 462.023 97.8672 461.836 98.7109C461.648 99.5547 461.555 100.461 461.555 101.43ZM496.523 109.281V97.9844C496.523 97.1719 496.391 96.4766 496.125 95.8984C495.859 95.3047 495.445 94.8438 494.883 94.5156C494.336 94.1875 493.625 94.0234 492.75 94.0234C492 94.0234 491.352 94.1562 490.805 94.4219C490.258 94.6719 489.836 95.0391 489.539 95.5234C489.242 95.9922 489.094 96.5469 489.094 97.1875H482.344C482.344 96.1094 482.594 95.0859 483.094 94.1172C483.594 93.1484 484.32 92.2969 485.273 91.5625C486.227 90.8125 487.359 90.2266 488.672 89.8047C490 89.3828 491.484 89.1719 493.125 89.1719C495.094 89.1719 496.844 89.5 498.375 90.1562C499.906 90.8125 501.109 91.7969 501.984 93.1094C502.875 94.4219 503.32 96.0625 503.32 98.0312V108.883C503.32 110.273 503.406 111.414 503.578 112.305C503.75 113.18 504 113.945 504.328 114.602V115H497.508C497.18 114.312 496.93 113.453 496.758 112.422C496.602 111.375 496.523 110.328 496.523 109.281ZM497.414 99.5547L497.461 103.375H493.688C492.797 103.375 492.023 103.477 491.367 103.68C490.711 103.883 490.172 104.172 489.75 104.547C489.328 104.906 489.016 105.328 488.812 105.812C488.625 106.297 488.531 106.828 488.531 107.406C488.531 107.984 488.664 108.508 488.93 108.977C489.195 109.43 489.578 109.789 490.078 110.055C490.578 110.305 491.164 110.43 491.836 110.43C492.852 110.43 493.734 110.227 494.484 109.82C495.234 109.414 495.812 108.914 496.219 108.32C496.641 107.727 496.859 107.164 496.875 106.633L498.656 109.492C498.406 110.133 498.062 110.797 497.625 111.484C497.203 112.172 496.664 112.82 496.008 113.43C495.352 114.023 494.562 114.516 493.641 114.906C492.719 115.281 491.625 115.469 490.359 115.469C488.75 115.469 487.289 115.148 485.977 114.508C484.68 113.852 483.648 112.953 482.883 111.812C482.133 110.656 481.758 109.344 481.758 107.875C481.758 106.547 482.008 105.367 482.508 104.336C483.008 103.305 483.742 102.438 484.711 101.734C485.695 101.016 486.922 100.477 488.391 100.117C489.859 99.7422 491.562 99.5547 493.5 99.5547H497.414ZM515.648 79V115H508.875V79H515.648ZM528.352 79V115H521.578V79H528.352ZM545.602 115.469C543.633 115.469 541.867 115.156 540.305 114.531C538.742 113.891 537.414 113.008 536.32 111.883C535.242 110.758 534.414 109.453 533.836 107.969C533.258 106.469 532.969 104.875 532.969 103.188V102.25C532.969 100.328 533.242 98.5703 533.789 96.9766C534.336 95.3828 535.117 94 536.133 92.8281C537.164 91.6562 538.414 90.7578 539.883 90.1328C541.352 89.4922 543.008 89.1719 544.852 89.1719C546.648 89.1719 548.242 89.4688 549.633 90.0625C551.023 90.6562 552.188 91.5 553.125 92.5938C554.078 93.6875 554.797 95 555.281 96.5312C555.766 98.0469 556.008 99.7344 556.008 101.594V104.406H535.852V99.9062H549.375V99.3906C549.375 98.4531 549.203 97.6172 548.859 96.8828C548.531 96.1328 548.031 95.5391 547.359 95.1016C546.688 94.6641 545.828 94.4453 544.781 94.4453C543.891 94.4453 543.125 94.6406 542.484 95.0312C541.844 95.4219 541.32 95.9688 540.914 96.6719C540.523 97.375 540.227 98.2031 540.023 99.1562C539.836 100.094 539.742 101.125 539.742 102.25V103.188C539.742 104.203 539.883 105.141 540.164 106C540.461 106.859 540.875 107.602 541.406 108.227C541.953 108.852 542.609 109.336 543.375 109.68C544.156 110.023 545.039 110.195 546.023 110.195C547.242 110.195 548.375 109.961 549.422 109.492C550.484 109.008 551.398 108.281 552.164 107.312L555.445 110.875C554.914 111.641 554.188 112.375 553.266 113.078C552.359 113.781 551.266 114.359 549.984 114.812C548.703 115.25 547.242 115.469 545.602 115.469ZM566.461 95.0547V115H559.711V89.6406H566.039L566.461 95.0547ZM565.477 101.43H563.648C563.648 99.5547 563.891 97.8672 564.375 96.3672C564.859 94.8516 565.539 93.5625 566.414 92.5C567.289 91.4219 568.328 90.6016 569.531 90.0391C570.75 89.4609 572.109 89.1719 573.609 89.1719C574.797 89.1719 575.883 89.3438 576.867 89.6875C577.852 90.0312 578.695 90.5781 579.398 91.3281C580.117 92.0781 580.664 93.0703 581.039 94.3047C581.43 95.5391 581.625 97.0469 581.625 98.8281V115H574.828V98.8047C574.828 97.6797 574.672 96.8047 574.359 96.1797C574.047 95.5547 573.586 95.1172 572.977 94.8672C572.383 94.6016 571.648 94.4688 570.773 94.4688C569.867 94.4688 569.078 94.6484 568.406 95.0078C567.75 95.3672 567.203 95.8672 566.766 96.5078C566.344 97.1328 566.023 97.8672 565.805 98.7109C565.586 99.5547 565.477 100.461 565.477 101.43ZM602.812 89.6406H608.93V114.156C608.93 116.469 608.414 118.43 607.383 120.039C606.367 121.664 604.945 122.891 603.117 123.719C601.289 124.562 599.164 124.984 596.742 124.984C595.68 124.984 594.555 124.844 593.367 124.562C592.195 124.281 591.07 123.844 589.992 123.25C588.93 122.656 588.039 121.906 587.32 121L590.297 117.016C591.078 117.922 591.984 118.625 593.016 119.125C594.047 119.641 595.188 119.898 596.438 119.898C597.656 119.898 598.688 119.672 599.531 119.219C600.375 118.781 601.023 118.133 601.477 117.273C601.93 116.43 602.156 115.406 602.156 114.203V95.5L602.812 89.6406ZM585.75 102.625V102.133C585.75 100.195 585.984 98.4375 586.453 96.8594C586.938 95.2656 587.617 93.8984 588.492 92.7578C589.383 91.6172 590.461 90.7344 591.727 90.1094C592.992 89.4844 594.422 89.1719 596.016 89.1719C597.703 89.1719 599.117 89.4844 600.258 90.1094C601.398 90.7344 602.336 91.625 603.07 92.7812C603.805 93.9219 604.375 95.2734 604.781 96.8359C605.203 98.3828 605.531 100.078 605.766 101.922V103C605.531 104.766 605.18 106.406 604.711 107.922C604.242 109.438 603.625 110.766 602.859 111.906C602.094 113.031 601.141 113.906 600 114.531C598.875 115.156 597.531 115.469 595.969 115.469C594.406 115.469 592.992 115.148 591.727 114.508C590.477 113.867 589.406 112.969 588.516 111.812C587.625 110.656 586.938 109.297 586.453 107.734C585.984 106.172 585.75 104.469 585.75 102.625ZM592.5 102.133V102.625C592.5 103.672 592.602 104.648 592.805 105.555C593.008 106.461 593.32 107.266 593.742 107.969C594.18 108.656 594.719 109.195 595.359 109.586C596.016 109.961 596.789 110.148 597.68 110.148C598.914 110.148 599.922 109.891 600.703 109.375C601.484 108.844 602.07 108.117 602.461 107.195C602.852 106.273 603.078 105.211 603.141 104.008V100.938C603.109 99.9531 602.977 99.0703 602.742 98.2891C602.508 97.4922 602.18 96.8125 601.758 96.25C601.336 95.6875 600.789 95.25 600.117 94.9375C599.445 94.625 598.648 94.4688 597.727 94.4688C596.836 94.4688 596.062 94.6719 595.406 95.0781C594.766 95.4688 594.227 96.0078 593.789 96.6953C593.367 97.3828 593.047 98.1953 592.828 99.1328C592.609 100.055 592.5 101.055 592.5 102.133ZM625.852 115.469C623.883 115.469 622.117 115.156 620.555 114.531C618.992 113.891 617.664 113.008 616.57 111.883C615.492 110.758 614.664 109.453 614.086 107.969C613.508 106.469 613.219 104.875 613.219 103.188V102.25C613.219 100.328 613.492 98.5703 614.039 96.9766C614.586 95.3828 615.367 94 616.383 92.8281C617.414 91.6562 618.664 90.7578 620.133 90.1328C621.602 89.4922 623.258 89.1719 625.102 89.1719C626.898 89.1719 628.492 89.4688 629.883 90.0625C631.273 90.6562 632.438 91.5 633.375 92.5938C634.328 93.6875 635.047 95 635.531 96.5312C636.016 98.0469 636.258 99.7344 636.258 101.594V104.406H616.102V99.9062H629.625V99.3906C629.625 98.4531 629.453 97.6172 629.109 96.8828C628.781 96.1328 628.281 95.5391 627.609 95.1016C626.938 94.6641 626.078 94.4453 625.031 94.4453C624.141 94.4453 623.375 94.6406 622.734 95.0312C622.094 95.4219 621.57 95.9688 621.164 96.6719C620.773 97.375 620.477 98.2031 620.273 99.1562C620.086 100.094 619.992 101.125 619.992 102.25V103.188C619.992 104.203 620.133 105.141 620.414 106C620.711 106.859 621.125 107.602 621.656 108.227C622.203 108.852 622.859 109.336 623.625 109.68C624.406 110.023 625.289 110.195 626.273 110.195C627.492 110.195 628.625 109.961 629.672 109.492C630.734 109.008 631.648 108.281 632.414 107.312L635.695 110.875C635.164 111.641 634.438 112.375 633.516 113.078C632.609 113.781 631.516 114.359 630.234 114.812C628.953 115.25 627.492 115.469 625.852 115.469Z"
        fill="#1FD1C2" />
</svg>